<svg width="19" height="19" viewBox="0 0 19 19" fill="none" xmlns="http://www.w3.org/2000/svg">
<path d="M5.5 4.5V0.5M13.5 4.5V0.5M4.5 8.5H14.5M4.5 12.5H14.5M2.5 18.5H16.5C17.0304 18.5 17.5391 18.2893 17.9142 17.9142C18.2893 17.5391 18.5 17.0304 18.5 16.5V4.5C18.5 3.96957 18.2893 3.46086 17.9142 3.08579C17.5391 2.71071 17.0304 2.5 16.5 2.5H2.5C1.96957 2.5 1.46086 2.71071 1.08579 3.08579C0.710714 3.46086 0.5 3.96957 0.5 4.5V16.5C0.5 17.0304 0.710714 17.5391 1.08579 17.9142C1.46086 18.2893 1.96957 18.5 2.5 18.5Z" stroke="#5D5D5D" stroke-linecap="round" stroke-linejoin="round"/>
</svg>
