<svg width="31" height="31" viewBox="0 0 31 31" fill="none" xmlns="http://www.w3.org/2000/svg">
<path d="M9.5275 3.08333H12.765C13.1739 3.08333 13.566 2.92091 13.8551 2.63179C14.1442 2.34267 14.3067 1.95054 14.3067 1.54167C14.3067 1.13279 14.1442 0.740662 13.8551 0.451544C13.566 0.162425 13.1739 0 12.765 0H9.5275C9.11863 0 8.7265 0.162425 8.43738 0.451544C8.14826 0.740662 7.98583 1.13279 7.98583 1.54167C7.98583 1.95054 8.14826 2.34267 8.43738 2.63179C8.7265 2.92091 9.11863 3.08333 9.5275 3.08333ZM1.54167 14.3067C1.95054 14.3067 2.34267 14.1442 2.63179 13.8551C2.92091 13.566 3.08333 13.1739 3.08333 12.765V9.5275C3.08333 9.11863 2.92091 8.7265 2.63179 8.43738C2.34267 8.14826 1.95054 7.98583 1.54167 7.98583C1.13279 7.98583 0.740662 8.14826 0.451544 8.43738C0.162425 8.7265 0 9.11863 0 9.5275V12.765C0 13.1739 0.162425 13.566 0.451544 13.8551C0.740662 14.1442 1.13279 14.3067 1.54167 14.3067ZM19.2092 3.08333C19.2092 3.49221 19.3716 3.88434 19.6607 4.17346C19.9498 4.46257 20.342 4.625 20.7508 4.625C21.1597 4.625 21.5518 4.46257 21.841 4.17346C22.1301 3.88434 22.2925 3.49221 22.2925 3.08333V1.54167C22.2925 1.13279 22.1301 0.740662 21.841 0.451544C21.5518 0.162425 21.1597 0 20.7508 0H19.2092C18.8003 0 18.4082 0.162425 18.119 0.451544C17.8299 0.740662 17.6675 1.13279 17.6675 1.54167C17.6675 1.95054 17.8299 2.34267 18.119 2.63179C18.4082 2.92091 18.8003 3.08333 19.2092 3.08333ZM29.2917 8.54083H22.2925C22.2925 8.13196 22.1301 7.73983 21.841 7.45071C21.5518 7.16159 21.1597 6.99917 20.7508 6.99917C20.342 6.99917 19.9498 7.16159 19.6607 7.45071C19.3716 7.73983 19.2092 8.13196 19.2092 8.54083H10.0825C9.67362 8.54083 9.2815 8.70326 8.99238 8.99238C8.70326 9.2815 8.54083 9.67362 8.54083 10.0825V19.2092C8.13196 19.2092 7.73983 19.3716 7.45071 19.6607C7.16159 19.9498 6.99917 20.342 6.99917 20.7508C6.99917 21.1597 7.16159 21.5518 7.45071 21.841C7.73983 22.1301 8.13196 22.2925 8.54083 22.2925V29.2917C8.54083 29.7005 8.70326 30.0927 8.99238 30.3818C9.2815 30.6709 9.67362 30.8333 10.0825 30.8333H29.2917C29.7005 30.8333 30.0927 30.6709 30.3818 30.3818C30.6709 30.0927 30.8333 29.7005 30.8333 29.2917V10.0825C30.8333 9.67362 30.6709 9.2815 30.3818 8.99238C30.0927 8.70326 29.7005 8.54083 29.2917 8.54083ZM27.75 27.75H11.6242V20.7663V11.6242H27.75V27.75ZM3.08333 0H1.54167C1.13279 0 0.740662 0.162425 0.451544 0.451544C0.162425 0.740662 0 1.13279 0 1.54167V3.08333C0 3.49221 0.162425 3.88434 0.451544 4.17346C0.740662 4.46257 1.13279 4.625 1.54167 4.625C1.95054 4.625 2.34267 4.46257 2.63179 4.17346C2.92091 3.88434 3.08333 3.49221 3.08333 3.08333C3.49221 3.08333 3.88434 2.92091 4.17346 2.63179C4.46257 2.34267 4.625 1.95054 4.625 1.54167C4.625 1.13279 4.46257 0.740662 4.17346 0.451544C3.88434 0.162425 3.49221 0 3.08333 0ZM3.08333 19.2092C3.08333 18.8003 2.92091 18.4082 2.63179 18.119C2.34267 17.8299 1.95054 17.6675 1.54167 17.6675C1.13279 17.6675 0.740662 17.8299 0.451544 18.119C0.162425 18.4082 0 18.8003 0 19.2092V20.7508C0 21.1597 0.162425 21.5518 0.451544 21.841C0.740662 22.1301 1.13279 22.2925 1.54167 22.2925H3.08333C3.49221 22.2925 3.88434 22.1301 4.17346 21.841C4.46257 21.5518 4.625 21.1597 4.625 20.7508C4.625 20.342 4.46257 19.9498 4.17346 19.6607C3.88434 19.3716 3.49221 19.2092 3.08333 19.2092Z" fill="#5956E8"/>
</svg>
