<svg width="31" height="31" viewBox="0 0 31 31" fill="none" xmlns="http://www.w3.org/2000/svg">
<path d="M29.3345 25.1412V15.0279C29.7515 14.796 30.1089 14.4704 30.3787 14.077C30.6485 13.6835 30.8234 13.2327 30.8894 12.7602C30.9555 12.2877 30.911 11.8063 30.7594 11.3539C30.6078 10.9015 30.3534 10.4905 30.016 10.1531C29.6786 9.81572 29.2676 9.56125 28.8152 9.40969C28.3628 9.25814 27.8814 9.21364 27.4089 9.27969C26.9364 9.34575 26.4856 9.52055 26.0921 9.79036C25.6986 10.0602 25.3731 10.4176 25.1412 10.8345H20.0845V5.77788C20.5015 5.54596 20.8589 5.22045 21.1287 4.82695C21.3985 4.43346 21.5734 3.98272 21.6394 3.51021C21.7055 3.0377 21.661 2.5563 21.5094 2.1039C21.3578 1.65151 21.1034 1.24045 20.766 0.903088C20.4286 0.565722 20.0176 0.311249 19.5652 0.159695C19.1128 0.00814057 18.6314 -0.0363607 18.1589 0.0296931C17.6864 0.0957469 17.2356 0.270553 16.8421 0.540357C16.4486 0.810161 16.1231 1.1676 15.8912 1.58455H5.77788C5.54596 1.1676 5.22045 0.810161 4.82695 0.540357C4.43346 0.270553 3.98272 0.0957469 3.51021 0.0296931C3.0377 -0.0363607 2.5563 0.00814057 2.1039 0.159695C1.65151 0.311249 1.24045 0.565722 0.903088 0.903088C0.565722 1.24045 0.311249 1.65151 0.159695 2.1039C0.00814057 2.5563 -0.0363607 3.0377 0.0296931 3.51021C0.0957469 3.98272 0.270553 4.43346 0.540357 4.82695C0.810161 5.22045 1.1676 5.54596 1.58455 5.77788V15.8912C1.1676 16.1231 0.810161 16.4486 0.540357 16.8421C0.270553 17.2356 0.0957469 17.6864 0.0296931 18.1589C-0.0363607 18.6314 0.00814057 19.1128 0.159695 19.5652C0.311249 20.0176 0.565722 20.4286 0.903088 20.766C1.24045 21.1034 1.65151 21.3578 2.1039 21.5094C2.5563 21.661 3.0377 21.7055 3.51021 21.6394C3.98272 21.5734 4.43346 21.3985 4.82695 21.1287C5.22045 20.8589 5.54596 20.5015 5.77788 20.0845H10.8345V25.1412C10.4176 25.3731 10.0602 25.6986 9.79036 26.0921C9.52055 26.4856 9.34575 26.9364 9.27969 27.4089C9.21364 27.8814 9.25814 28.3628 9.40969 28.8152C9.56125 29.2676 9.81572 29.6786 10.1531 30.016C10.4905 30.3534 10.9015 30.6078 11.3539 30.7594C11.8063 30.911 12.2877 30.9555 12.7602 30.8894C13.2327 30.8234 13.6835 30.6485 14.077 30.3787C14.4704 30.1089 14.796 29.7515 15.0279 29.3345H25.1412C25.3731 29.7515 25.6986 30.1089 26.0921 30.3787C26.4856 30.6485 26.9364 30.8234 27.4089 30.8894C27.8814 30.9555 28.3628 30.911 28.8152 30.7594C29.2676 30.6078 29.6786 30.3534 30.016 30.016C30.3534 29.6786 30.6078 29.2676 30.7594 28.8152C30.911 28.3628 30.9555 27.8814 30.8894 27.4089C30.8234 26.9364 30.6485 26.4856 30.3787 26.0921C30.1089 25.6986 29.7515 25.3731 29.3345 25.1412ZM9.29288 12.3762C9.29613 12.9143 9.44014 13.4422 9.71059 13.9074C9.98105 14.3725 10.3685 14.7588 10.8345 15.0279V17.0012H5.77788C5.51514 16.5376 5.13151 16.154 4.66788 15.8912V5.77788C5.13151 5.51514 5.51514 5.13151 5.77788 4.66788H15.8912C16.154 5.13151 16.5376 5.51514 17.0012 5.77788V10.8345H15.0279C14.6845 10.2558 14.1613 9.80525 13.538 9.55166C12.9147 9.29807 12.2255 9.25537 11.5756 9.43006C10.9258 9.60475 10.3509 9.98725 9.93873 10.5192C9.52657 11.0511 9.29975 11.7033 9.29288 12.3762ZM17.0012 13.9179V15.8912C16.5376 16.154 16.154 16.5376 15.8912 17.0012H13.9179V15.0279C14.3815 14.7651 14.7651 14.3815 15.0279 13.9179H17.0012ZM26.2512 25.1412C25.7876 25.404 25.404 25.7876 25.1412 26.2512H15.0279C14.7651 25.7876 14.3815 25.404 13.9179 25.1412V20.0845H15.8912C16.1231 20.5015 16.4486 20.8589 16.8421 21.1287C17.2356 21.3985 17.6864 21.5734 18.1589 21.6394C18.6314 21.7055 19.1128 21.661 19.5652 21.5094C20.0176 21.3578 20.4286 21.1034 20.766 20.766C21.1034 20.4286 21.3578 20.0176 21.5094 19.5652C21.661 19.1128 21.7055 18.6314 21.6394 18.1589C21.5734 17.6864 21.3985 17.2356 21.1287 16.8421C20.8589 16.4486 20.5015 16.1231 20.0845 15.8912V13.9179H25.1412C25.404 14.3815 25.7876 14.7651 26.2512 15.0279V25.1412Z" fill="#5956E8"/>
</svg>
