<svg width="31" height="31" viewBox="0 0 31 31" fill="none" xmlns="http://www.w3.org/2000/svg">
<path d="M27.77 21.8808V8.99252C28.5095 8.73488 29.1715 8.29371 29.6938 7.71034C30.2162 7.12698 30.5819 6.42052 30.7567 5.6572C30.9315 4.89388 30.9096 4.09868 30.693 3.34613C30.4765 2.59359 30.0725 1.90835 29.5187 1.35463C28.965 0.800914 28.2798 0.396855 27.5272 0.180326C26.7747 -0.0362032 25.9795 -0.0581116 25.2162 0.116654C24.4528 0.291419 23.7464 0.657136 23.163 1.17953C22.5797 1.70192 22.1385 2.36387 21.8808 3.10335H8.99252C8.73488 2.36387 8.29371 1.70192 7.71034 1.17953C7.12698 0.657136 6.42052 0.291419 5.6572 0.116654C4.89388 -0.0581116 4.09868 -0.0362032 3.34613 0.180326C2.59359 0.396855 1.90835 0.800914 1.35463 1.35463C0.800914 1.90835 0.396855 2.59359 0.180326 3.34613C-0.0362032 4.09868 -0.0581116 4.89388 0.116654 5.6572C0.291419 6.42052 0.657136 7.12698 1.17953 7.71034C1.70192 8.29371 2.36387 8.73488 3.10335 8.99252V21.8808C2.36387 22.1385 1.70192 22.5797 1.17953 23.163C0.657136 23.7464 0.291419 24.4528 0.116654 25.2162C-0.0581116 25.9795 -0.0362032 26.7747 0.180326 27.5272C0.396855 28.2798 0.800914 28.965 1.35463 29.5187C1.90835 30.0725 2.59359 30.4765 3.34613 30.693C4.09868 30.9096 4.89388 30.9315 5.6572 30.7567C6.42052 30.5819 7.12698 30.2162 7.71034 29.6938C8.29371 29.1715 8.73488 28.5095 8.99252 27.77H21.8808C22.1385 28.5095 22.5797 29.1715 23.163 29.6938C23.7464 30.2162 24.4528 30.5819 25.2162 30.7567C25.9795 30.9315 26.7747 30.9096 27.5272 30.693C28.2798 30.4765 28.965 30.0725 29.5187 29.5187C30.0725 28.965 30.4765 28.2798 30.693 27.5272C30.9096 26.7747 30.9315 25.9795 30.7567 25.2162C30.5819 24.4528 30.2162 23.7464 29.6938 23.163C29.1715 22.5797 28.5095 22.1385 27.77 21.8808ZM26.2283 3.10335C26.5333 3.10335 26.8313 3.19377 27.0849 3.36317C27.3384 3.53257 27.536 3.77334 27.6527 4.05505C27.7693 4.33675 27.7999 4.64673 27.7404 4.94578C27.6809 5.24484 27.5341 5.51953 27.3185 5.73514C27.1029 5.95075 26.8282 6.09758 26.5291 6.15706C26.2301 6.21655 25.9201 6.18602 25.6384 6.06933C25.3567 5.95265 25.1159 5.75505 24.9465 5.50152C24.7771 5.248 24.6867 4.94993 24.6867 4.64502C24.6867 4.23614 24.8491 3.84401 25.1382 3.55489C25.4273 3.26578 25.8195 3.10335 26.2283 3.10335ZM4.64502 3.10335C4.94993 3.10335 5.248 3.19377 5.50152 3.36317C5.75505 3.53257 5.95265 3.77334 6.06933 4.05505C6.18602 4.33675 6.21655 4.64673 6.15706 4.94578C6.09758 5.24484 5.95075 5.51953 5.73514 5.73514C5.51953 5.95075 5.24484 6.09758 4.94578 6.15706C4.64673 6.21655 4.33675 6.18602 4.05505 6.06933C3.77334 5.95265 3.53257 5.75505 3.36317 5.50152C3.19377 5.248 3.10335 4.94993 3.10335 4.64502C3.10335 4.23614 3.26578 3.84401 3.55489 3.55489C3.84401 3.26578 4.23614 3.10335 4.64502 3.10335ZM4.64502 27.77C4.3401 27.77 4.04204 27.6796 3.78851 27.5102C3.53499 27.3408 3.33739 27.1 3.2207 26.8183C3.10402 26.5366 3.07349 26.2266 3.13297 25.9276C3.19246 25.6285 3.33929 25.3538 3.55489 25.1382C3.7705 24.9226 4.0452 24.7758 4.34425 24.7163C4.64331 24.6568 4.95328 24.6873 5.23499 24.804C5.51669 24.9207 5.75747 25.1183 5.92687 25.3718C6.09627 25.6254 6.18668 25.9234 6.18668 26.2283C6.18668 26.6372 6.02426 27.0294 5.73514 27.3185C5.44602 27.6076 5.05389 27.77 4.64502 27.77ZM21.8808 24.6867H8.99252C8.76232 24.0401 8.3911 23.4529 7.9058 22.9676C7.42049 22.4823 6.83326 22.111 6.18668 21.8808V8.99252C6.83326 8.76232 7.42049 8.3911 7.9058 7.9058C8.3911 7.42049 8.76232 6.83326 8.99252 6.18668H21.8808C22.111 6.83326 22.4823 7.42049 22.9676 7.9058C23.4529 8.3911 24.0401 8.76232 24.6867 8.99252V21.8808C24.0401 22.111 23.4529 22.4823 22.9676 22.9676C22.4823 23.4529 22.111 24.0401 21.8808 24.6867ZM26.2283 27.77C25.9234 27.77 25.6254 27.6796 25.3718 27.5102C25.1183 27.3408 24.9207 27.1 24.804 26.8183C24.6873 26.5366 24.6568 26.2266 24.7163 25.9276C24.7758 25.6285 24.9226 25.3538 25.1382 25.1382C25.3538 24.9226 25.6285 24.7758 25.9276 24.7163C26.2266 24.6568 26.5366 24.6873 26.8183 24.804C27.1 24.9207 27.3408 25.1183 27.5102 25.3718C27.6796 25.6254 27.77 25.9234 27.77 26.2283C27.77 26.6372 27.6076 27.0294 27.3185 27.3185C27.0294 27.6076 26.6372 27.77 26.2283 27.77Z" fill="#5956E8"/>
</svg>
