<svg width="32" height="31" viewBox="0 0 32 31" fill="none" xmlns="http://www.w3.org/2000/svg">
<path d="M22.2107 12.3762H19.044V9.29288C19.044 8.88401 18.8772 8.49188 18.5803 8.20276C18.2834 7.91364 17.8806 7.75121 17.4607 7.75121H9.54404C9.12411 7.75121 8.72139 7.91364 8.42445 8.20276C8.12752 8.49188 7.96071 8.88401 7.96071 9.29288V17.0012C7.96071 17.4101 8.12752 17.8022 8.42445 18.0913C8.72139 18.3805 9.12411 18.5429 9.54404 18.5429H12.7107V21.6262C12.7107 22.0351 12.8775 22.4272 13.1745 22.7163C13.4714 23.0055 13.8741 23.1679 14.294 23.1679H22.2107C22.6306 23.1679 23.0334 23.0055 23.3303 22.7163C23.6272 22.4272 23.794 22.0351 23.794 21.6262V13.9179C23.794 13.509 23.6272 13.1169 23.3303 12.8278C23.0334 12.5386 22.6306 12.3762 22.2107 12.3762ZM12.7107 13.9179V15.4595H11.1274V10.8345H15.8774V12.3762H14.294C13.8741 12.3762 13.4714 12.5386 13.1745 12.8278C12.8775 13.1169 12.7107 13.509 12.7107 13.9179ZM20.6274 20.0845H15.8774V15.4595H20.6274V20.0845ZM30.1274 25.1412V5.77788C30.5556 5.54596 30.9227 5.22045 31.1998 4.82695C31.4769 4.43346 31.6564 3.98272 31.7242 3.51021C31.7921 3.0377 31.7464 2.5563 31.5907 2.1039C31.4351 1.65151 31.1737 1.24045 30.8272 0.903088C30.4808 0.565722 30.0586 0.311249 29.594 0.159695C29.1294 0.00814057 28.6349 -0.0363607 28.1497 0.0296931C27.6644 0.0957469 27.2015 0.270553 26.7973 0.540357C26.3932 0.810161 26.0589 1.1676 25.8207 1.58455H5.93404C5.69585 1.1676 5.36154 0.810161 4.95741 0.540357C4.55328 0.270553 4.09036 0.0957469 3.60508 0.0296931C3.1198 -0.0363607 2.62539 0.00814057 2.16077 0.159695C1.69614 0.311249 1.27398 0.565722 0.927495 0.903088C0.581011 1.24045 0.319662 1.65151 0.164011 2.1039C0.00836058 2.5563 -0.0373434 3.0377 0.0304956 3.51021C0.0983346 3.98272 0.277865 4.43346 0.554961 4.82695C0.832057 5.22045 1.19916 5.54596 1.62737 5.77788V25.1412C1.19916 25.3731 0.832057 25.6986 0.554961 26.0921C0.277865 26.4856 0.0983346 26.9364 0.0304956 27.4089C-0.0373434 27.8814 0.00836058 28.3628 0.164011 28.8152C0.319662 29.2676 0.581011 29.6786 0.927495 30.016C1.27398 30.3534 1.69614 30.6078 2.16077 30.7594C2.62539 30.911 3.1198 30.9555 3.60508 30.8894C4.09036 30.8234 4.55328 30.6485 4.95741 30.3787C5.36154 30.1089 5.69585 29.7515 5.93404 29.3345H25.8207C26.0589 29.7515 26.3932 30.1089 26.7973 30.3787C27.2015 30.6485 27.6644 30.8234 28.1497 30.8894C28.6349 30.9555 29.1294 30.911 29.594 30.7594C30.0586 30.6078 30.4808 30.3534 30.8272 30.016C31.1737 29.6786 31.4351 29.2676 31.5907 28.8152C31.7464 28.3628 31.7921 27.8814 31.7242 27.4089C31.6564 26.9364 31.4769 26.4856 31.1998 26.0921C30.9227 25.6986 30.5556 25.3731 30.1274 25.1412ZM26.9607 25.1412C26.4846 25.404 26.0905 25.7876 25.8207 26.2512H5.93404C5.6642 25.7876 5.2702 25.404 4.79404 25.1412V5.77788C5.2702 5.51514 5.6642 5.13151 5.93404 4.66788H25.8207C26.0905 5.13151 26.4846 5.51514 26.9607 5.77788V25.1412Z" fill="#5956E8"/>
</svg>
