<svg width="25" height="31" viewBox="0 0 25 31" fill="none" xmlns="http://www.w3.org/2000/svg">
<path d="M23.125 0C22.7161 0 22.324 0.162425 22.0349 0.451544C21.7458 0.740662 21.5833 1.13279 21.5833 1.54167V3.08333H13.875C13.4661 3.08333 13.074 3.24576 12.7849 3.53488C12.4958 3.824 12.3333 4.21612 12.3333 4.625V26.2083C12.3333 26.6172 12.4958 27.0093 12.7849 27.2985C13.074 27.5876 13.4661 27.75 13.875 27.75H21.5833V29.2917C21.5833 29.7005 21.7458 30.0927 22.0349 30.3818C22.324 30.6709 22.7161 30.8333 23.125 30.8333C23.5339 30.8333 23.926 30.6709 24.2151 30.3818C24.5042 30.0927 24.6667 29.7005 24.6667 29.2917V1.54167C24.6667 1.13279 24.5042 0.740662 24.2151 0.451544C23.926 0.162425 23.5339 0 23.125 0V0ZM21.5833 24.6667H15.4167V6.16667H21.5833V24.6667ZM7.70833 0C7.29946 0 6.90733 0.162425 6.61821 0.451544C6.32909 0.740662 6.16667 1.13279 6.16667 1.54167V4.625H1.54167C1.13279 4.625 0.740663 4.78743 0.451544 5.07654C0.162425 5.36566 0 5.75779 0 6.16667V24.6667C0 25.0755 0.162425 25.4677 0.451544 25.7568C0.740663 26.0459 1.13279 26.2083 1.54167 26.2083H6.16667V29.2917C6.16667 29.7005 6.32909 30.0927 6.61821 30.3818C6.90733 30.6709 7.29946 30.8333 7.70833 30.8333C8.11721 30.8333 8.50934 30.6709 8.79846 30.3818C9.08757 30.0927 9.25 29.7005 9.25 29.2917V1.54167C9.25 1.13279 9.08757 0.740662 8.79846 0.451544C8.50934 0.162425 8.11721 0 7.70833 0V0ZM6.16667 23.125H3.08333V7.70833H6.16667V23.125Z" fill="#5956E8"/>
</svg>
